<svg xmlns="http://www.w3.org/2000/svg" width="1180" height="700" viewBox="0 0 1180 700">
  <style>
    .box { fill: #f8fafc; stroke: #334155; stroke-width: 2; rx: 10; }
    .btc { fill: #eff6ff; stroke: #1d4ed8; stroke-width: 3; rx: 10; }
    .ok { fill: #ecfdf5; stroke: #047857; stroke-width: 2; rx: 10; }
    .blocked { fill: #fff7ed; stroke: #c2410c; stroke-width: 2; rx: 10; }
    .text { font: 15px sans-serif; fill: #111827; }
    .small { font: 12px sans-serif; fill: #374151; }
    .title { font: 22px sans-serif; font-weight: 700; fill: #111827; }
    .line { stroke: #475569; stroke-width: 2; marker-end: url(#arrow); }
  </style>
  <defs>
    <marker id="arrow" markerWidth="10" markerHeight="10" refX="8" refY="3" orient="auto" markerUnits="strokeWidth">
      <path d="M0,0 L0,6 L9,3 z" fill="#475569"/>
    </marker>
  </defs>
  <text x="40" y="40" class="title">System Code Flow</text>

  <rect x="40" y="85" width="190" height="76" class="btc"/>
  <text x="60" y="118" class="text">ScanBtcBlockJob</text>
  <text x="60" y="142" class="small">scheduled BTC scan</text>

  <rect x="280" y="85" width="215" height="76" class="btc"/>
  <text x="300" y="118" class="text">AbstractScanBlockJob</text>
  <text x="300" y="142" class="small">height range + confirmations</text>

  <rect x="545" y="85" width="210" height="76" class="btc"/>
  <text x="565" y="118" class="text">BtcWallet</text>
  <text x="565" y="142" class="small">block parse, P2WSH outputs</text>

  <rect x="805" y="85" width="210" height="76" class="ok"/>
  <text x="825" y="118" class="text">Ledger Credit</text>
  <text x="825" y="142" class="small">UTXO + ledger idempotent</text>

  <rect x="40" y="245" width="205" height="76" class="btc"/>
  <text x="60" y="278" class="text">BtcCollectionJob</text>
  <text x="60" y="302" class="small">eligible UTXO collection</text>

  <rect x="295" y="245" width="205" height="76" class="btc"/>
  <text x="315" y="278" class="text">wallet-sig1</text>
  <text x="315" y="302" class="small">first P2WSH signature</text>

  <rect x="550" y="245" width="205" height="76" class="btc"/>
  <text x="570" y="278" class="text">wallet-sig2</text>
  <text x="570" y="302" class="small">second signature + validation</text>

  <rect x="805" y="245" width="220" height="76" class="ok"/>
  <text x="825" y="278" class="text">SendRawTxJob</text>
  <text x="825" y="302" class="small">broadcast and DB status update</text>

  <rect x="40" y="405" width="210" height="76" class="box"/>
  <text x="60" y="438" class="text">EvmChainAdapter</text>
  <text x="60" y="462" class="small">quote native/ERC20 transfers</text>

  <rect x="300" y="405" width="210" height="76" class="box"/>
  <text x="320" y="438" class="text">JdbcTokenRegistry</text>
  <text x="320" y="462" class="small">token_config first</text>

  <rect x="560" y="405" width="210" height="76" class="blocked"/>
  <text x="580" y="438" class="text">EVM/TRON Scan</text>
  <text x="580" y="462" class="small">fail-fast until RPC scanners wired</text>

  <rect x="820" y="405" width="220" height="76" class="blocked"/>
  <text x="840" y="438" class="text">SOL / TON</text>
  <text x="840" y="462" class="small">runtime connectors blocked</text>

  <rect x="300" y="565" width="210" height="76" class="ok"/>
  <text x="320" y="598" class="text">PostgreSQL</text>
  <text x="320" y="622" class="small">ledger and chain tables</text>

  <rect x="560" y="565" width="210" height="76" class="ok"/>
  <text x="580" y="598" class="text">Redis</text>
  <text x="580" y="622" class="small">signing and send queues</text>

  <line x1="230" y1="123" x2="280" y2="123" class="line"/>
  <line x1="495" y1="123" x2="545" y2="123" class="line"/>
  <line x1="755" y1="123" x2="805" y2="123" class="line"/>
  <line x1="245" y1="283" x2="295" y2="283" class="line"/>
  <line x1="500" y1="283" x2="550" y2="283" class="line"/>
  <line x1="755" y1="283" x2="805" y2="283" class="line"/>
  <line x1="250" y1="443" x2="300" y2="443" class="line"/>
  <line x1="510" y1="443" x2="560" y2="443" class="line"/>
  <line x1="665" y1="321" x2="665" y2="565" class="line"/>
  <line x1="910" y1="321" x2="665" y2="565" class="line"/>
  <line x1="910" y1="161" x2="405" y2="565" class="line"/>
</svg>
